<svg version="1.2" xmlns="http://www.w3.org/2000/svg" viewBox="0 0 459 459" width="459" height="459">
	<defs>
		<linearGradient id="g1" x2="1" gradientUnits="userSpaceOnUse" gradientTransform="matrix(134.695,481.826,-481.826,134.695,0,-38.979)">
			<stop offset="0" stop-color="#71e0ff"/>
			<stop offset=".211" stop-color="#68ccff"/>
			<stop offset=".469" stop-color="#5e84ff"/>
			<stop offset=".803" stop-color="#8258fa"/>
			<stop offset="1" stop-color="#c56eff"/>
		</linearGradient>
		<linearGradient id="g2" x2="1" gradientUnits="userSpaceOnUse" gradientTransform="matrix(-342.775,122.239,-122.239,-342.775,325.924,-32.285)">
			<stop offset="0" stop-color="#3700da" stop-opacity=".1"/>
			<stop offset="1" stop-color="#ff00bf" stop-opacity=".6"/>
		</linearGradient>
		<linearGradient id="g3" x2="1" gradientUnits="userSpaceOnUse" gradientTransform="matrix(-29.093,13.644,-13.644,-29.093,273.182,64.334)">
			<stop offset="0" stop-color="#3700da" stop-opacity=".3"/>
			<stop offset="1" stop-color="#ff00bf" stop-opacity=".6"/>
		</linearGradient>
		<linearGradient id="g4" x2="1" gradientUnits="userSpaceOnUse" gradientTransform="matrix(-29.093,13.644,-13.644,-29.093,169.995,374.984)">
			<stop offset="0" stop-color="#3700da" stop-opacity=".3"/>
			<stop offset="1" stop-color="#ff00bf" stop-opacity=".6"/>
		</linearGradient>
		<linearGradient id="g5" x2="1" gradientUnits="userSpaceOnUse" gradientTransform="matrix(-125.78,50.931,-55.429,-136.888,214.022,184.629)">
			<stop offset="0" stop-color="#3700da" stop-opacity=".3"/>
			<stop offset="1" stop-color="#ff00bf" stop-opacity=".6"/>
		</linearGradient>
	</defs>
	<style>
		.s0 { opacity: .75;fill: #ffffff } 
		.s1 { opacity: .8;fill: url(#g1) } 
		.s2 { opacity: .15;fill: url(#g2) } 
		.s3 { opacity: .25;fill: none;stroke: #ffffff;stroke-width: 6 } 
		.s4 { opacity: .9;fill: #ffffff } 
		.s5 { opacity: .3;fill: url(#g3) } 
		.s6 { opacity: .3;fill: url(#g4) } 
		.s7 { opacity: .3;fill: url(#g5) } 
	</style>
	<path id="Shape 4" fill-rule="evenodd" class="s0" d="m459 0v459h-459v-459z"/>
	<path id="Shape 1" fill-rule="evenodd" class="s1" d="m459 0v459h-459v-459z"/>
	<path id="Shape 2" fill-rule="evenodd" class="s2" d="m459 0v459h-459v-459z"/>
	<path id="Shape 3" fill-rule="evenodd" class="s3" d="m459 0v459h-459v-459z"/>
	<path fill-rule="evenodd" class="s4" d="m276.91 102.44c-15.62 0-28.24-12.63-28.24-28.24 0-15.62 12.62-28.25 28.24-28.25 15.61 0 28.24 12.63 28.24 28.25 0 15.61-12.63 28.24-28.24 28.24z"/>
	<path fill-rule="evenodd" class="s5" d="m276.91 102.44c-15.62 0-28.24-12.63-28.24-28.24 0-15.62 12.62-28.25 28.24-28.25 15.61 0 28.24 12.63 28.24 28.25 0 15.61-12.63 28.24-28.24 28.24z"/>
	<path fill-rule="evenodd" class="s3" d="m276.91 99.44c-13.96 0-25.24-11.29-25.24-25.24 0-13.96 11.28-25.25 25.24-25.25 13.96 0 25.24 11.29 25.24 25.25 0 13.95-11.28 25.24-25.24 25.24z"/>
	<path fill-rule="evenodd" class="s4" d="m173.72 413.09c-15.62 0-28.24-12.63-28.24-28.24 0-15.62 12.62-28.24 28.24-28.24 15.62 0 28.24 12.62 28.24 28.24 0 15.61-12.62 28.24-28.24 28.24z"/>
	<path fill-rule="evenodd" class="s6" d="m173.72 413.09c-15.62 0-28.24-12.63-28.24-28.24 0-15.62 12.62-28.24 28.24-28.24 15.62 0 28.24 12.62 28.24 28.24 0 15.61-12.62 28.24-28.24 28.24z"/>
	<path fill-rule="evenodd" class="s3" d="m173.72 410.09c-13.96 0-25.24-11.29-25.24-25.24 0-13.96 11.28-25.24 25.24-25.24 13.96 0 25.24 11.28 25.24 25.24 0 13.95-11.28 25.24-25.24 25.24z"/>
	<path fill-rule="evenodd" class="s4" d="m252.5 104.06c-9.65-9.65-25.29-9.65-34.94 0l-85.33 85.32c-11.9 11.11-19.34 26.93-19.34 44.49 0 33.59 27.24 60.82 60.83 60.82 15.04 0 28.81-5.46 39.43-14.51l62.13-62.12c4.66-4.67 12.23-4.67 16.89 0 4.67 4.66 4.67 12.23 0 16.89l-91.75 91.76c-7.63 9.7-6.97 23.78 1.97 32.72 9.65 9.65 25.3 9.65 34.95 0l85.64-85.64c1.27-1.27 2.51-2.59 3.82-3.83 11.75-11.09 19.08-26.81 19.08-44.24 0-33.59-27.23-60.83-60.83-60.83-14.1 0-27.09 4.8-37.4 12.86l-63.25 63.25c-4.66 4.66-12.23 4.66-16.9 0-4.66-4.67-4.66-12.23 0-16.9l40.47-40.47q0.02-0.02 0-0.04-0.03-0.02-0.01-0.04l44.54-44.54c9.65-9.65 9.65-25.3 0-34.95z"/>
	<path fill-rule="evenodd" class="s7" d="m252.5 104.06c-9.65-9.65-25.29-9.65-34.94 0l-85.33 85.32c-11.9 11.11-19.34 26.93-19.34 44.49 0 33.59 27.24 60.82 60.83 60.82 15.04 0 28.81-5.46 39.43-14.51l62.13-62.12c4.66-4.67 12.23-4.67 16.89 0 4.67 4.66 4.67 12.23 0 16.89l-91.75 91.76c-7.63 9.7-6.97 23.78 1.97 32.72 9.65 9.65 25.3 9.65 34.95 0l85.64-85.64c1.27-1.27 2.51-2.59 3.82-3.83 11.75-11.09 19.08-26.81 19.08-44.24 0-33.59-27.23-60.83-60.83-60.83-14.1 0-27.09 4.8-37.4 12.86l-63.25 63.25c-4.66 4.66-12.23 4.66-16.9 0-4.66-4.67-4.66-12.23 0-16.9l40.47-40.47q0.02-0.02 0-0.04-0.03-0.02-0.01-0.04l44.54-44.54c9.65-9.65 9.65-25.3 0-34.95z"/>
	<path class="s3" d="m219.68 106.18c8.48-8.48 22.22-8.48 30.7 0 8.48 8.48 8.48 22.23 0 30.7l-44.54 44.55q-0.23 0.23-0.4 0.49l-40.06 40.06c-5.83 5.84-5.83 15.3 0 21.14 5.84 5.84 15.3 5.84 21.14 0l63.11-63.11c9.79-7.6 22.07-12.12 35.42-12.12 31.94 0 57.83 25.89 57.83 57.83 0 16.57-6.97 31.51-18.14 42.06-1.35 1.27-2.71 2.72-3.88 3.89l-85.64 85.64c-8.48 8.48-22.23 8.48-30.71 0-7.81-7.81-8.42-20.1-1.83-28.62l91.62-91.62c5.83-5.83 5.83-15.3 0-21.14-5.84-5.83-15.31-5.83-21.14 0l-62.04 62.04c-10.08 8.56-23.13 13.72-37.4 13.72-31.94 0-57.83-25.89-57.83-57.82 0-16.7 7.07-31.73 18.39-42.29l0.04-0.04z"/>
</svg>